# This file uses centimeters as units for non-parametric coordinates.

v -6.000004 4.000000 10.000000
v -2.000010 4.000000 10.000000
v 2.000006 4.000000 10.000000
v 6.000006 4.000000 10.000000
v -6.000004 8.000000 10.000000
v -2.000010 8.000000 10.000000
v 2.000006 8.000000 10.000000
v 6.000006 8.000000 10.000000
v -6.000010 12.000000 10.000000
v -2.000010 12.000000 10.000000
v 2.000006 12.000000 10.000000
v 6.000006 12.000000 10.000000
v -5.999994 16.000000 10.000000
v -1.999994 16.000000 10.000000
v 2.000006 16.000000 10.000000
v 6.000006 16.000000 10.000000
v -10.000010 0.000000 10.000000
v -10.000007 4.000000 10.000000
v -6.000010 -0.000000 10.000000
v -2.000002 0.000000 10.000000
v 2.000006 0.000000 10.000000
v 5.999998 -0.000000 10.000000
v 9.999990 4.000000 10.000000
v 9.999990 -0.000000 10.000000
v -10.000007 8.000000 10.000000
v 9.999998 8.000000 10.000000
v -10.000002 12.000000 10.000000
v 9.999998 12.000000 10.000000
v -10.000002 16.000000 10.000000
v 9.999998 16.000000 10.000000
v -10.000002 20.000000 10.000000
v -5.999994 20.000000 10.000000
v -1.999994 20.000000 10.000000
v 1.999998 20.000000 10.000000
v 5.999998 20.000000 10.000000
v 9.999990 20.000000 10.000000
v -9.999994 0.000000 -10.000000
v -5.999994 0.000000 -10.000000
v -1.999994 0.000000 -10.000000
v 2.000006 0.000000 -10.000000
v 6.000006 0.000000 -10.000000
v 10.000006 0.000000 -10.000000
v -9.999994 4.000000 -10.000000
v -5.999994 4.000000 -10.000000
v -1.999994 4.000000 -10.000000
v 2.000006 4.000000 -10.000000
v 6.000006 4.000000 -10.000000
v 10.000006 4.000000 -10.000000
v -9.999994 8.000000 -10.000000
v -5.999994 8.000000 -10.000000
v -1.999994 8.000000 -10.000000
v 2.000006 8.000000 -10.000000
v 6.000006 8.000000 -10.000000
v 10.000006 8.000000 -10.000000
v -9.999994 12.000000 -10.000000
v -5.999994 12.000000 -10.000000
v -1.999994 12.000000 -10.000000
v 2.000006 12.000000 -10.000000
v 6.000006 12.000000 -10.000000
v 10.000006 12.000000 -10.000000
v -9.999994 16.000000 -10.000000
v -5.999994 16.000000 -10.000000
v -1.999994 16.000000 -10.000000
v 2.000006 16.000000 -10.000000
v 6.000006 16.000000 -10.000000
v 10.000006 16.000000 -10.000000
v -9.999994 20.000000 -10.000000
v -5.999994 20.000000 -10.000000
v -1.999994 20.000000 -10.000000
v 2.000006 20.000000 -10.000000
v 6.000006 20.000000 -10.000000
v 10.000006 20.000000 -10.000000
v -9.999994 0.000000 -6.000000
v -5.999994 0.000000 -6.000000
v -1.999994 0.000000 -6.000000
v 2.000006 0.000000 -6.000000
v 6.000006 0.000000 -6.000000
v 10.000006 0.000000 -6.000000
v -9.999994 4.000000 -6.000000
v 9.999990 4.000000 -6.000000
v -10.000010 8.000000 -6.000000
v 9.999990 8.000000 -6.000000
v -10.000010 12.000000 -6.000000
v 10.000006 12.000000 -6.000000
v -9.999994 16.000000 -6.000000
v 9.999990 16.000000 -6.000000
v -10.000010 20.000000 -6.000000
v -6.000010 20.000000 -6.000000
v -2.000010 20.000000 -6.000000
v 2.000006 20.000000 -6.000000
v 6.000006 20.000000 -6.000000
v 9.999990 20.000000 -6.000000
v -10.000010 0.000000 -2.000000
v -6.000010 0.000000 -2.000000
v -2.000010 0.000000 -2.000000
v 2.000006 0.000000 -2.000000
v 6.000006 0.000000 -2.000000
v 9.999990 0.000000 -2.000000
v -10.000010 4.000000 -2.000000
v 9.999990 4.000000 -2.000000
v -10.000010 8.000000 -2.000000
v 10.000006 8.000000 -2.000000
v -9.999994 12.000000 -2.000000
v 10.000006 12.000000 -2.000000
v -9.999994 16.000000 -2.000000
v 10.000006 16.000000 -2.000000
v -9.999994 20.000000 -2.000000
v -5.999994 20.000000 -2.000000
v -1.999994 20.000000 -2.000000
v 2.000006 20.000000 -2.000000
v 6.000006 20.000000 -2.000000
v 10.000006 20.000000 -2.000000
v -9.999994 0.000000 2.000000
v -5.999994 0.000000 2.000000
v -1.999994 0.000000 2.000000
v 1.999990 0.000000 2.000000
v 5.999990 0.000000 2.000000
v 9.999990 0.000000 2.000000
v -10.000010 4.000000 2.000000
v 10.000006 4.000000 2.000000
v -9.999994 8.000000 2.000000
v 9.999990 8.000000 2.000000
v -10.000004 12.000000 2.000000
v 9.999996 12.000000 2.000000
v -10.000010 16.000000 2.000000
v 10.000006 16.000000 2.000000
v -9.999994 20.000000 2.000000
v -6.000010 20.000000 2.000000
v -2.000004 20.000000 2.000000
v 1.999996 20.000000 2.000000
v 5.999990 20.000000 2.000000
v 10.000006 20.000000 2.000000
v -9.999994 0.000000 6.000000
v -6.000010 0.000000 6.000000
v -2.000010 0.000000 6.000000
v 1.999990 0.000000 6.000000
v 5.999990 0.000000 6.000000
v 10.000006 0.000000 6.000000
v -9.999994 4.000000 6.000000
v 10.000006 4.000000 6.000000
v -9.999994 8.000000 6.000000
v 10.000006 8.000000 6.000000
v -9.999994 12.000000 6.000000
v 10.000006 12.000000 6.000000
v -9.999994 16.000000 6.000000
v 10.000006 16.000000 6.000000
v -9.999994 20.000000 6.000000
v -5.999994 20.000000 6.000000
v -1.999994 20.000000 6.000000
v 2.000006 20.000000 6.000000
v 6.000006 20.000000 6.000000
v 9.999990 20.000000 6.000000
vn -0.000000 0.000000 -1.000000
vn -0.000000 0.000000 -1.000000
vn 0.000000 0.000000 -1.000000
vn -0.000000 0.000000 -1.000000
vn 0.000000 0.000000 -1.000000
vn 0.000000 0.000000 -1.000000
vn -0.000000 0.000000 -1.000000
vn -0.000000 0.000000 -1.000000
vn -0.000000 0.000000 -1.000000
vn -0.000000 0.000000 -1.000000
vn -0.000000 0.000000 -1.000000
vn 0.000000 0.000000 -1.000000
vn 0.000000 0.000000 -1.000000
vn 0.000000 0.000000 -1.000000
vn 0.000000 0.000000 -1.000000
vn 0.000000 0.000000 -1.000000
vn 0.000000 0.000000 -1.000000
vn 0.000000 0.000000 -1.000000
vn 0.000000 0.000000 -1.000000
vn 0.000000 0.000000 -1.000000
vn 0.000000 0.000000 -1.000000
vn 0.000000 0.000000 -1.000000
vn 0.000000 0.000000 -1.000000
vn 0.000000 0.000000 -1.000000
vn 0.000000 0.000000 -1.000000
vn 0.000000 0.000000 -1.000000
vn 0.000000 0.000000 -1.000000
vn 0.000000 0.000000 -1.000000
vn 0.000000 0.000000 -1.000000
vn 0.000000 0.000000 -1.000000
vn 0.000000 0.000000 -1.000000
vn 0.000000 0.000000 -1.000000
vn 0.000000 0.000000 -1.000000
vn 0.000000 0.000000 -1.000000
vn 0.000000 0.000000 -1.000000
vn 0.000000 0.000000 -1.000000
vn 0.000000 1.000000 0.000000
vn 0.000000 1.000000 0.000000
vn 0.000000 1.000000 0.000000
vn 0.000000 0.000000 1.000000
vn 0.000000 0.000000 1.000000
vn 0.000000 0.000000 1.000000
vn 0.000000 0.000000 1.000000
vn 1.000000 0.000000 0.000000
vn 1.000000 0.000001 0.000001
vn 1.000000 0.000001 0.000001
vn 0.000000 1.000000 0.000000
vn 1.000000 0.000000 0.000003
vn 0.000000 1.000000 0.000000
vn 0.000000 1.000000 0.000000
vn 0.000000 0.000000 1.000000
vn 0.000000 0.000000 1.000000
vn 0.000000 1.000000 0.000000
vn 0.000000 1.000000 0.000000
vn 0.000000 0.000000 1.000000
vn 0.000000 0.000000 1.000000
vn 0.000000 1.000000 0.000000
vn 0.000000 1.000000 0.000000
vn 0.000000 0.000000 1.000000
vn 0.000000 0.000000 1.000000
vn -1.000000 -0.000002 -0.000002
vn -1.000000 -0.000003 -0.000001
vn -1.000000 -0.000001 -0.000001
vn 0.000000 1.000000 0.000000
vn 0.000000 1.000000 0.000000
vn 0.000000 0.000000 1.000000
vn -1.000000 0.000000 -0.000004
vn 0.000000 0.000000 1.000000
vn 0.000000 0.000000 1.000000
vn 0.000000 0.000000 1.000000
vn 1.000000 0.000000 0.000004
vn 1.000000 0.000001 0.000001
vn 0.000000 0.000000 1.000000
vn 0.000000 0.000000 1.000000
vn 0.000000 0.000000 1.000000
vn -1.000000 0.000001 -0.000001
vn -1.000000 0.000001 -0.000003
vn 0.000000 0.000000 1.000000
vn 0.000000 0.000000 1.000000
vn 0.000000 0.000000 1.000000
vn 1.000000 -0.000001 0.000003
vn 1.000000 -0.000001 0.000001
vn 0.000000 0.000000 1.000000
vn 0.000000 0.000000 1.000000
vn 0.000000 0.000000 1.000000
vn -1.000000 0.000000 0.000000
vn -1.000000 -0.000001 -0.000001
vn 0.000000 0.000000 1.000000
vn 0.000000 0.000000 1.000000
vn 0.000000 0.000000 1.000000
vn 1.000000 0.000001 0.000001
vn 1.000000 0.000000 0.000000
vn 0.000000 0.000000 1.000000
vn 0.000000 0.000000 1.000000
vn 0.000000 0.000000 1.000000
vn -1.000000 -0.000001 0.000001
vn -1.000000 0.000000 -0.000004
vn 0.000000 0.000000 1.000000
vn 0.000000 0.000000 1.000000
vn 0.000000 -1.000000 0.000000
vn 0.000000 -1.000000 0.000000
vn 0.000000 -1.000000 0.000000
vn 0.000000 0.000000 1.000000
vn 1.000000 0.000000 0.000004
vn 1.000000 0.000003 0.000000
vn 0.000000 -1.000000 0.000000
vn 0.000000 -1.000000 0.000000
vn 0.000000 -1.000000 0.000000
vn 0.000000 0.000000 1.000000
vn 0.000000 -1.000000 0.000000
vn 0.000000 -1.000000 0.000000
vn 0.000000 0.000000 1.000000
vn 0.000000 -1.000000 0.000000
vn 0.000000 -1.000000 0.000000
vn 0.000000 0.000000 1.000000
vn -1.000000 0.000000 -0.000001
vn 0.000000 -1.000000 0.000000
vn 0.000000 -1.000000 0.000000
vn -1.000000 0.000000 -0.000004
vn 0.000000 0.000000 1.000000
vn 0.000000 1.000000 0.000000
vn 1.000000 -0.000001 0.000001
vn 0.000000 1.000000 0.000000
vn 1.000000 0.000001 0.000000
vn 0.000000 1.000000 0.000000
vn 0.000000 1.000000 0.000000
vn 0.000000 1.000000 0.000000
vn -1.000000 0.000001 0.000000
vn -1.000000 0.000000 0.000000
vn 0.000000 1.000000 0.000000
vn 1.000000 -0.000000 -0.000000
vn -1.000000 0.000002 -0.000000
vn 1.000000 -0.000001 0.000000
vn -1.000000 0.000001 -0.000000
vn 1.000000 -0.000001 0.000001
vn -1.000000 -0.000001 0.000001
vn 0.000000 -1.000000 0.000000
vn 1.000000 0.000001 -0.000001
vn 0.000000 -1.000000 0.000000
vn 0.000000 -1.000000 0.000000
vn 0.000000 -1.000000 0.000000
vn 0.000000 -1.000000 0.000000
vn -1.000000 0.000000 0.000003
vn 0.000000 -1.000000 0.000000
vn 0.000000 1.000000 0.000000
vn 1.000000 0.000000 -0.000002
vn 0.000000 1.000000 0.000000
vn 1.000000 0.000003 -0.000003
vn 0.000000 1.000000 0.000000
vn 0.000000 1.000000 0.000000
vn 0.000000 1.000000 0.000000
vn -1.000000 0.000003 0.000001
vn -1.000000 0.000000 0.000002
vn 0.000000 1.000000 0.000000
vn 1.000000 -0.000000 -0.000002
vn -1.000000 -0.000000 0.000001
vn 1.000000 0.000001 -0.000001
vn -1.000000 0.000001 -0.000001
vn 1.000000 -0.000001 0.000000
vn -1.000000 0.000000 -0.000001
vn 0.000000 -1.000000 0.000000
vn 1.000000 -0.000003 0.000001
vn 0.000000 -1.000000 0.000000
vn 0.000000 -1.000000 0.000000
vn 0.000000 -1.000000 0.000000
vn 0.000000 -1.000000 0.000000
vn -1.000000 0.000000 -0.000001
vn 0.000000 -1.000000 0.000000
vn -0.000000 1.000000 0.000000
vn 1.000000 0.000001 0.000000
vn 0.000000 1.000000 0.000000
vn 1.000000 -0.000000 0.000002
vn -0.000000 1.000000 -0.000000
vn 0.000000 1.000000 -0.000000
vn 0.000000 1.000000 0.000000
vn -1.000000 0.000000 -0.000001
vn -1.000000 0.000001 -0.000001
vn 0.000000 1.000000 0.000000
vn 1.000000 -0.000001 0.000001
vn -1.000000 -0.000001 0.000000
vn 1.000000 0.000000 0.000000
vn -1.000000 0.000000 0.000000
vn 1.000000 0.000000 -0.000001
vn -1.000000 -0.000001 -0.000000
vn 0.000000 -1.000000 0.000000
vn 1.000000 -0.000001 -0.000001
vn 0.000000 -1.000000 0.000000
vn 0.000000 -1.000000 0.000000
vn 0.000000 -1.000000 0.000000
vn 0.000000 -1.000000 0.000000
vn -1.000000 -0.000003 -0.000001
vn 0.000000 -1.000000 0.000000
vn 0.000000 1.000000 0.000000
vn 1.000000 -0.000000 0.000003
vn 0.000000 1.000000 -0.000000
vn 1.000000 -0.000001 0.000004
vn -0.000000 1.000000 0.000000
vn 0.000000 1.000000 -0.000000
vn 0.000000 1.000000 0.000000
vn -1.000000 0.000000 -0.000004
vn -1.000000 0.000001 -0.000004
vn 0.000000 1.000000 0.000000
vn 1.000000 -0.000000 0.000003
vn -1.000000 0.000001 -0.000003
vn 1.000000 -0.000000 0.000002
vn -1.000000 0.000000 -0.000002
vn 1.000000 0.000000 0.000002
vn -1.000000 -0.000001 -0.000002
vn 0.000000 -1.000000 0.000000
vn 1.000000 0.000000 0.000002
vn 0.000000 -1.000000 0.000000
vn 0.000000 -1.000000 0.000000
vn 0.000000 -1.000000 0.000000
vn 0.000000 -1.000000 0.000000
vn -1.000000 -0.000003 -0.000001
vn 0.000000 -1.000000 0.000000
g polySurface3
f 19//1 18//2 1//3
f 17//4 18//2 19//1
f 20//5 1//3 2//6
f 19//1 1//3 20//5
f 21//7 2//6 3//8
f 20//5 2//6 21//7
f 22//9 3//8 4//10
f 21//7 3//8 22//9
f 24//11 4//10 23//12
f 22//9 4//10 24//11
f 1//3 25//13 5//14
f 18//2 25//13 1//3
f 2//6 5//14 6//15
f 1//3 5//14 2//6
f 3//8 6//15 7//16
f 2//6 6//15 3//8
f 4//10 7//16 8//17
f 3//8 7//16 4//10
f 23//12 8//17 26//18
f 4//10 8//17 23//12
f 5//14 27//19 9//20
f 25//13 27//19 5//14
f 6//15 9//20 10//21
f 5//14 9//20 6//15
f 7//16 10//21 11//22
f 6//15 10//21 7//16
f 8//17 11//22 12//23
f 7//16 11//22 8//17
f 26//18 12//23 28//24
f 8//17 12//23 26//18
f 9//20 29//25 13//26
f 27//19 29//25 9//20
f 10//21 13//26 14//27
f 9//20 13//26 10//21
f 11//22 14//27 15//28
f 10//21 14//27 11//22
f 12//23 15//28 16//29
f 11//22 15//28 12//23
f 28//24 16//29 30//30
f 12//23 16//29 28//24
f 13//26 31//31 32//32
f 29//25 31//31 13//26
f 14//27 32//32 33//33
f 13//26 32//32 14//27
f 15//28 33//33 34//34
f 14//27 33//33 15//28
f 16//29 34//34 35//35
f 15//28 34//34 16//29
f 30//30 35//35 36//36
f 16//29 35//35 30//30
f 37//37 74//38 38//39
f 37//40 38//41 43//42
f 38//41 44//43 43//42
f 37//44 43//45 79//46
f 37//37 73//47 74//38
f 37//44 79//46 73//48
f 38//39 75//49 39//50
f 38//41 39//51 44//43
f 39//51 45//52 44//43
f 38//39 74//38 75//49
f 39//50 76//53 40//54
f 39//51 40//55 45//52
f 40//55 46//56 45//52
f 39//50 75//49 76//53
f 40//54 77//57 41//58
f 40//55 41//59 46//56
f 41//59 47//60 46//56
f 40//54 76//53 77//57
f 42//61 78//62 80//63
f 41//58 78//64 42//65
f 41//59 42//66 47//60
f 42//61 80//63 48//67
f 42//66 48//68 47//60
f 41//58 77//57 78//64
f 43//42 44//43 49//69
f 44//43 50//70 49//69
f 43//45 49//71 81//72
f 43//45 81//72 79//46
f 44//43 45//52 50//70
f 45//52 51//73 50//70
f 45//52 46//56 51//73
f 46//56 52//74 51//73
f 46//56 47//60 52//74
f 47//60 53//75 52//74
f 48//67 80//63 82//76
f 47//60 48//68 53//75
f 48//67 82//76 54//77
f 48//68 54//78 53//75
f 49//69 50//70 55//79
f 50//70 56//80 55//79
f 49//71 55//81 83//82
f 49//71 83//82 81//72
f 50//70 51//73 56//80
f 51//73 57//83 56//80
f 51//73 52//74 57//83
f 52//74 58//84 57//83
f 52//74 53//75 58//84
f 53//75 59//85 58//84
f 54//77 82//76 84//86
f 53//75 54//78 59//85
f 54//77 84//86 60//87
f 54//78 60//88 59//85
f 55//79 56//80 61//89
f 56//80 62//90 61//89
f 55//81 61//91 85//92
f 55//81 85//92 83//82
f 56//80 57//83 62//90
f 57//83 63//93 62//90
f 57//83 58//84 63//93
f 58//84 64//94 63//93
f 58//84 59//85 64//94
f 59//85 65//95 64//94
f 60//87 84//86 86//96
f 59//85 60//88 65//95
f 60//87 86//96 66//97
f 60//88 66//98 65//95
f 61//89 62//90 67//99
f 67//100 68//101 88//102
f 62//90 68//103 67//99
f 61//91 67//104 87//105
f 67//100 88//102 87//106
f 61//91 87//105 85//92
f 62//90 63//93 68//103
f 68//101 69//107 89//108
f 63//93 69//109 68//103
f 68//101 89//108 88//102
f 63//93 64//94 69//109
f 69//107 70//110 90//111
f 64//94 70//112 69//109
f 69//107 90//111 89//108
f 64//94 65//95 70//112
f 70//110 71//113 91//114
f 65//95 71//115 70//112
f 70//110 91//114 90//111
f 66//97 86//96 92//116
f 65//95 66//98 71//115
f 71//113 72//117 92//118
f 66//97 92//116 72//119
f 66//98 72//120 71//115
f 71//113 92//118 91//114
f 73//47 94//121 74//38
f 73//48 79//46 99//122
f 73//47 93//123 94//121
f 73//48 99//122 93//124
f 74//38 95//125 75//49
f 74//38 94//121 95//125
f 75//49 96//126 76//53
f 75//49 95//125 96//126
f 76//53 97//127 77//57
f 76//53 96//126 97//127
f 78//62 98//128 100//129
f 77//57 98//130 78//64
f 78//62 100//129 80//63
f 77//57 97//127 98//130
f 79//46 81//72 101//131
f 79//46 101//131 99//122
f 80//63 100//129 102//132
f 80//63 102//132 82//76
f 81//72 83//82 103//133
f 81//72 103//133 101//131
f 82//76 102//132 104//134
f 82//76 104//134 84//86
f 83//82 85//92 105//135
f 83//82 105//135 103//133
f 84//86 104//134 106//136
f 84//86 106//136 86//96
f 87//106 88//102 108//137
f 85//92 87//105 107//138
f 87//106 108//137 107//139
f 85//92 107//138 105//135
f 88//102 89//108 109//140
f 88//102 109//140 108//137
f 89//108 90//111 110//141
f 89//108 110//141 109//140
f 90//111 91//114 111//142
f 90//111 111//142 110//141
f 86//96 106//136 112//143
f 91//114 92//118 112//144
f 86//96 112//143 92//116
f 91//114 112//144 111//142
f 93//123 114//145 94//121
f 93//124 99//122 119//146
f 93//123 113//147 114//145
f 93//124 119//146 113//148
f 94//121 115//149 95//125
f 94//121 114//145 115//149
f 95//125 116//150 96//126
f 95//125 115//149 116//150
f 96//126 117//151 97//127
f 96//126 116//150 117//151
f 98//128 118//152 120//153
f 97//127 118//154 98//130
f 98//128 120//153 100//129
f 97//127 117//151 118//154
f 99//122 101//131 121//155
f 99//122 121//155 119//146
f 100//129 120//153 122//156
f 100//129 122//156 102//132
f 101//131 103//133 123//157
f 101//131 123//157 121//155
f 102//132 122//156 124//158
f 102//132 124//158 104//134
f 103//133 105//135 125//159
f 103//133 125//159 123//157
f 104//134 124//158 126//160
f 104//134 126//160 106//136
f 107//139 108//137 128//161
f 105//135 107//138 127//162
f 107//139 128//161 127//163
f 105//135 127//162 125//159
f 108//137 109//140 129//164
f 108//137 129//164 128//161
f 109//140 110//141 130//165
f 109//140 130//165 129//164
f 110//141 111//142 131//166
f 110//141 131//166 130//165
f 106//136 126//160 132//167
f 111//142 112//144 132//168
f 106//136 132//167 112//143
f 111//142 132//168 131//166
f 113//147 134//169 114//145
f 113//148 119//146 139//170
f 113//147 133//171 134//169
f 113//148 139//170 133//172
f 114//145 135//173 115//149
f 114//145 134//169 135//173
f 115//149 136//174 116//150
f 115//149 135//173 136//174
f 116//150 137//175 117//151
f 116//150 136//174 137//175
f 118//152 138//176 140//177
f 117//151 138//178 118//154
f 118//152 140//177 120//153
f 117//151 137//175 138//178
f 119//146 121//155 141//179
f 119//146 141//179 139//170
f 120//153 140//177 142//180
f 120//153 142//180 122//156
f 121//155 123//157 143//181
f 121//155 143//181 141//179
f 122//156 142//180 144//182
f 122//156 144//182 124//158
f 123//157 125//159 145//183
f 123//157 145//183 143//181
f 124//158 144//182 146//184
f 124//158 146//184 126//160
f 127//163 128//161 148//185
f 125//159 127//162 147//186
f 127//163 148//185 147//187
f 125//159 147//186 145//183
f 128//161 129//164 149//188
f 128//161 149//188 148//185
f 129//164 130//165 150//189
f 129//164 150//189 149//188
f 130//165 131//166 151//190
f 130//165 151//190 150//189
f 126//160 146//184 152//191
f 131//166 132//168 152//192
f 126//160 152//191 132//167
f 131//166 152//192 151//190
f 133//171 19//193 134//169
f 133//172 139//170 18//194
f 133//171 17//195 19//193
f 133//172 18//194 17//196
f 134//169 20//197 135//173
f 134//169 19//193 20//197
f 135//173 21//198 136//174
f 135//173 20//197 21//198
f 136//174 22//199 137//175
f 136//174 21//198 22//199
f 138//176 24//200 23//201
f 137//175 24//202 138//178
f 138//176 23//201 140//177
f 137//175 22//199 24//202
f 139//170 141//179 25//203
f 139//170 25//203 18//194
f 140//177 23//201 26//204
f 140//177 26//204 142//180
f 141//179 143//181 27//205
f 141//179 27//205 25//203
f 142//180 26//204 28//206
f 142//180 28//206 144//182
f 143//181 145//183 29//207
f 143//181 29//207 27//205
f 144//182 28//206 30//208
f 144//182 30//208 146//184
f 147//187 148//185 32//209
f 145//183 147//186 31//210
f 147//187 32//209 31//211
f 145//183 31//210 29//207
f 148//185 149//188 33//212
f 148//185 33//212 32//209
f 149//188 150//189 34//213
f 149//188 34//213 33//212
f 150//189 151//190 35//214
f 150//189 35//214 34//213
f 146//184 30//208 36//215
f 151//190 152//192 36//216
f 146//184 36//215 152//191
f 151//190 36//216 35//214
