# OBJ output by FlowVR Render
#Face Count 300
#Vertex Count 152
v -9.999994 0.000000 -10.000000
v -5.999994 0.000000 -10.000000
v -1.999994 0.000000 -10.000000
v 2.000006 0.000000 -10.000000
v 6.000006 0.000000 -10.000000
v 10.000006 0.000000 -10.000000
v -9.999994 4.000000 -10.000000
v -5.999994 4.000000 -10.000000
v -1.999994 4.000000 -10.000000
v 2.000006 4.000000 -10.000000
v 6.000006 4.000000 -10.000000
v 10.000006 4.000000 -10.000000
v -9.999994 8.000000 -10.000000
v -5.999994 8.000000 -10.000000
v -1.999994 8.000000 -10.000000
v 2.000006 8.000000 -10.000000
v 6.000006 8.000000 -10.000000
v 10.000006 8.000000 -10.000000
v -9.999994 12.000000 -10.000000
v -5.999994 12.000000 -10.000000
v -1.999994 12.000000 -10.000000
v 2.000006 12.000000 -10.000000
v 6.000006 12.000000 -10.000000
v 10.000006 12.000000 -10.000000
v -9.999994 16.000000 -10.000000
v -5.999994 16.000000 -10.000000
v -1.999994 16.000000 -10.000000
v 2.000006 16.000000 -10.000000
v 6.000006 16.000000 -10.000000
v 10.000006 16.000000 -10.000000
v -9.999994 20.000000 -10.000000
v -5.999994 20.000000 -10.000000
v -1.999994 20.000000 -10.000000
v 2.000006 20.000000 -10.000000
v 6.000006 20.000000 -10.000000
v 10.000006 20.000000 -10.000000
v -9.999994 0.000000 -6.000000
v -5.999994 0.000000 -6.000000
v -1.999994 0.000000 -6.000000
v 2.000006 0.000000 -6.000000
v 6.000006 0.000000 -6.000000
v 10.000006 0.000000 -6.000000
v -9.999994 4.000000 -6.000000
v 10.000006 4.000000 -6.000000
v -9.999994 8.000000 -6.000000
v 10.000006 8.000000 -6.000000
v -9.999994 12.000000 -6.000000
v 10.000006 12.000000 -6.000000
v -9.999994 16.000000 -6.000000
v 10.000006 16.000000 -6.000000
v -9.999994 20.000000 -6.000000
v -5.999994 20.000000 -6.000000
v -1.999994 20.000000 -6.000000
v 2.000006 20.000000 -6.000000
v 6.000006 20.000000 -6.000000
v 10.000006 20.000000 -6.000000
v -9.999994 0.000000 -2.000000
v -5.999994 0.000000 -2.000000
v -1.999994 0.000000 -2.000000
v 2.000006 0.000000 -2.000000
v 6.000006 0.000000 -2.000000
v 10.000006 0.000000 -2.000000
v -9.999994 4.000000 -2.000000
v 10.000006 4.000000 -2.000000
v -9.999994 8.000000 -2.000000
v 10.000006 8.000000 -2.000000
v -9.999994 12.000000 -2.000000
v 10.000006 12.000000 -2.000000
v -9.999994 16.000000 -2.000000
v 10.000006 16.000000 -2.000000
v -9.999994 20.000000 -2.000000
v -5.999994 20.000000 -2.000000
v -1.999994 20.000000 -2.000000
v 2.000006 20.000000 -2.000000
v 6.000006 20.000000 -2.000000
v 10.000006 20.000000 -2.000000
v -9.999994 0.000000 2.000000
v -5.999994 0.000000 2.000000
v -1.999994 0.000000 2.000000
v 2.000006 0.000000 2.000000
v 6.000006 0.000000 2.000000
v 10.000006 0.000000 2.000000
v -9.999994 4.000000 2.000000
v 10.000006 4.000000 2.000000
v -9.999994 8.000000 2.000000
v 10.000006 8.000000 2.000000
v -9.999994 12.000000 2.000000
v 10.000006 12.000000 2.000000
v -9.999994 16.000000 2.000000
v 10.000006 16.000000 2.000000
v -9.999994 20.000000 2.000000
v -5.999994 20.000000 2.000000
v -1.999994 20.000000 2.000000
v 2.000006 20.000000 2.000000
v 6.000006 20.000000 2.000000
v 10.000006 20.000000 2.000000
v -9.999994 0.000000 6.000000
v -5.999994 0.000000 6.000000
v -1.999994 0.000000 6.000000
v 2.000006 0.000000 6.000000
v 6.000006 0.000000 6.000000
v 10.000006 0.000000 6.000000
v -9.999994 4.000000 6.000000
v 10.000006 4.000000 6.000000
v -9.999994 8.000000 6.000000
v 10.000006 8.000000 6.000000
v -9.999994 12.000000 6.000000
v 10.000006 12.000000 6.000000
v -9.999994 16.000000 6.000000
v 10.000006 16.000000 6.000000
v -9.999994 20.000000 6.000000
v -5.999994 20.000000 6.000000
v -1.999994 20.000000 6.000000
v 2.000006 20.000000 6.000000
v 6.000006 20.000000 6.000000
v 10.000006 20.000000 6.000000
v -9.999994 0.000000 10.000000
v -5.999994 0.000000 10.000000
v -1.999994 0.000000 10.000000
v 2.000006 0.000000 10.000000
v 6.000006 0.000000 10.000000
v 10.000006 0.000000 10.000000
v -9.999994 4.000000 10.000000
v -5.999994 4.000000 10.000000
v -1.999994 4.000000 10.000000
v 2.000006 4.000000 10.000000
v 6.000006 4.000000 10.000000
v 10.000006 4.000000 10.000000
v -9.999994 8.000000 10.000000
v -5.999994 8.000000 10.000000
v -1.999994 8.000000 10.000000
v 2.000006 8.000000 10.000000
v 6.000006 8.000000 10.000000
v 10.000006 8.000000 10.000000
v -9.999994 12.000000 10.000000
v -5.999994 12.000000 10.000000
v -1.999994 12.000000 10.000000
v 2.000006 12.000000 10.000000
v 6.000006 12.000000 10.000000
v 10.000006 12.000000 10.000000
v -9.999994 16.000000 10.000000
v -5.999994 16.000000 10.000000
v -1.999994 16.000000 10.000000
v 2.000006 16.000000 10.000000
v 6.000006 16.000000 10.000000
v 10.000006 16.000000 10.000000
v -9.999994 20.000000 10.000000
v -5.999994 20.000000 10.000000
v -1.999994 20.000000 10.000000
v 2.000006 20.000000 10.000000
v 6.000006 20.000000 10.000000
v 10.000006 20.000000 10.000000
vn 0.000000 1.000000 0.000000
vn 0.000000 0.000000 1.000000
vn 1.000000 0.000000 0.000000
vn 0.000000 1.000000 0.000000
vn 0.000000 0.000000 1.000000
vn 0.000000 1.000000 0.000000
vn 0.000000 0.000000 1.000000
vn 0.000000 1.000000 0.000000
vn 0.000000 0.000000 1.000000
vn 0.000000 1.000000 0.000000
vn 0.000000 0.000000 1.000000
vn -1.000000 0.000000 0.000000
vn 0.000000 1.000000 0.000000
vn 0.000000 0.000000 1.000000
vn 0.000000 0.000000 1.000000
vn 1.000000 0.000000 0.000000
vn 0.000000 0.000000 1.000000
vn 0.000000 0.000000 1.000000
vn 0.000000 0.000000 1.000000
vn 0.000000 0.000000 1.000000
vn -1.000000 0.000000 0.000000
vn 0.000000 0.000000 1.000000
vn 0.000000 0.000000 1.000000
vn 1.000000 0.000000 0.000000
vn 0.000000 0.000000 1.000000
vn 0.000000 0.000000 1.000000
vn 0.000000 0.000000 1.000000
vn 0.000000 0.000000 1.000000
vn -1.000000 0.000000 0.000000
vn 0.000000 0.000000 1.000000
vn 0.000000 0.000000 1.000000
vn 1.000000 0.000000 0.000000
vn 0.000000 0.000000 1.000000
vn 0.000000 0.000000 1.000000
vn 0.000000 0.000000 1.000000
vn 0.000000 0.000000 1.000000
vn -1.000000 0.000000 0.000000
vn 0.000000 0.000000 1.000000
vn 0.000000 0.000000 1.000000
vn 1.000000 0.000000 0.000000
vn 0.000000 0.000000 1.000000
vn 0.000000 0.000000 1.000000
vn 0.000000 0.000000 1.000000
vn 0.000000 0.000000 1.000000
vn -1.000000 0.000000 0.000000
vn 0.000000 0.000000 1.000000
vn 0.000000 0.000000 1.000000
vn 0.000000 -1.000000 0.000000
vn 1.000000 0.000000 0.000000
vn 0.000000 -1.000000 0.000000
vn 0.000000 0.000000 1.000000
vn 0.000000 -1.000000 0.000000
vn 0.000000 0.000000 1.000000
vn 0.000000 -1.000000 0.000000
vn 0.000000 0.000000 1.000000
vn 0.000000 -1.000000 0.000000
vn 0.000000 0.000000 1.000000
vn 0.000000 -1.000000 0.000000
vn -1.000000 0.000000 0.000000
vn 0.000000 0.000000 1.000000
vn 0.000000 1.000000 0.000000
vn 1.000000 0.000000 0.000000
vn 0.000000 1.000000 0.000000
vn 0.000000 1.000000 0.000000
vn 0.000000 1.000000 0.000000
vn 0.000000 1.000000 0.000000
vn -1.000000 0.000000 0.000000
vn 0.000000 1.000000 0.000000
vn 1.000000 0.000000 0.000000
vn -1.000000 0.000000 0.000000
vn 1.000000 0.000000 0.000000
vn -1.000000 0.000000 0.000000
vn 1.000000 0.000000 0.000000
vn -1.000000 0.000000 0.000000
vn 1.000000 0.000000 0.000000
vn -1.000000 0.000000 0.000000
vn 1.000000 0.000000 0.000000
vn 0.000000 -1.000000 0.000000
vn 0.000000 -1.000000 0.000000
vn 0.000000 -1.000000 0.000000
vn 0.000000 -1.000000 0.000000
vn 0.000000 -1.000000 0.000000
vn -1.000000 0.000000 0.000000
vn 0.000000 -1.000000 0.000000
vn 0.000000 1.000000 0.000000
vn 1.000000 0.000000 0.000000
vn 0.000000 1.000000 0.000000
vn 0.000000 1.000000 0.000000
vn 0.000000 1.000000 0.000000
vn 0.000000 1.000000 0.000000
vn -1.000000 0.000000 0.000000
vn 0.000000 1.000000 0.000000
vn 1.000000 0.000000 0.000000
vn -1.000000 0.000000 0.000000
vn 1.000000 0.000000 0.000000
vn -1.000000 0.000000 0.000000
vn 1.000000 0.000000 0.000000
vn -1.000000 0.000000 0.000000
vn 1.000000 0.000000 0.000000
vn -1.000000 0.000000 0.000000
vn 1.000000 0.000000 0.000000
vn 0.000000 -1.000000 0.000000
vn 0.000000 -1.000000 0.000000
vn 0.000000 -1.000000 0.000000
vn 0.000000 -1.000000 0.000000
vn 0.000000 -1.000000 0.000000
vn -1.000000 0.000000 0.000000
vn 0.000000 -1.000000 0.000000
vn 0.000000 1.000000 0.000000
vn 1.000000 0.000000 0.000000
vn 0.000000 1.000000 0.000000
vn 0.000000 1.000000 0.000000
vn 0.000000 1.000000 0.000000
vn 0.000000 1.000000 0.000000
vn -1.000000 0.000000 0.000000
vn 0.000000 1.000000 0.000000
vn 1.000000 0.000000 0.000000
vn -1.000000 0.000000 0.000000
vn 1.000000 0.000000 0.000000
vn -1.000000 0.000000 0.000000
vn 1.000000 0.000000 0.000000
vn -1.000000 0.000000 0.000000
vn 1.000000 0.000000 0.000000
vn -1.000000 0.000000 0.000000
vn 1.000000 0.000000 0.000000
vn 0.000000 -1.000000 0.000000
vn 0.000000 -1.000000 0.000000
vn 0.000000 -1.000000 0.000000
vn 0.000000 -1.000000 0.000000
vn 0.000000 -1.000000 0.000000
vn -1.000000 0.000000 0.000000
vn 0.000000 -1.000000 0.000000
vn 0.000000 1.000000 0.000000
vn 1.000000 0.000000 0.000000
vn 0.000000 1.000000 0.000000
vn 0.000000 1.000000 0.000000
vn 0.000000 1.000000 0.000000
vn 0.000000 1.000000 0.000000
vn -1.000000 0.000000 0.000000
vn 0.000000 1.000000 0.000000
vn 1.000000 0.000000 0.000000
vn -1.000000 0.000000 0.000000
vn 1.000000 0.000000 0.000000
vn -1.000000 0.000000 0.000000
vn 1.000000 0.000000 0.000000
vn -1.000000 0.000000 0.000000
vn 1.000000 0.000000 0.000000
vn -1.000000 0.000000 0.000000
vn 1.000000 0.000000 0.000000
vn 0.000000 -1.000000 0.000000
vn 0.000000 -1.000000 0.000000
vn 0.000000 -1.000000 0.000000
vn 0.000000 -1.000000 0.000000
vn 0.000000 -1.000000 0.000000
vn -1.000000 0.000000 0.000000
vn 0.000000 -1.000000 0.000000
vn 0.000000 1.000000 0.000000
vn 1.000000 0.000000 0.000000
vn 0.000000 0.000000 -1.000000
vn 0.000000 1.000000 0.000000
vn 0.000000 0.000000 -1.000000
vn 0.000000 1.000000 0.000000
vn 0.000000 0.000000 -1.000000
vn 0.000000 1.000000 0.000000
vn 0.000000 0.000000 -1.000000
vn 0.000000 1.000000 0.000000
vn 0.000000 0.000000 -1.000000
vn -1.000000 0.000000 0.000000
vn 0.000000 1.000000 0.000000
vn 0.000000 0.000000 -1.000000
vn 1.000000 0.000000 0.000000
vn 0.000000 0.000000 -1.000000
vn 0.000000 0.000000 -1.000000
vn 0.000000 0.000000 -1.000000
vn 0.000000 0.000000 -1.000000
vn 0.000000 0.000000 -1.000000
vn -1.000000 0.000000 0.000000
vn 0.000000 0.000000 -1.000000
vn 1.000000 0.000000 0.000000
vn 0.000000 0.000000 -1.000000
vn 0.000000 0.000000 -1.000000
vn 0.000000 0.000000 -1.000000
vn 0.000000 0.000000 -1.000000
vn 0.000000 0.000000 -1.000000
vn -1.000000 0.000000 0.000000
vn 0.000000 0.000000 -1.000000
vn 1.000000 0.000000 0.000000
vn 0.000000 0.000000 -1.000000
vn 0.000000 0.000000 -1.000000
vn 0.000000 0.000000 -1.000000
vn 0.000000 0.000000 -1.000000
vn 0.000000 0.000000 -1.000000
vn -1.000000 0.000000 0.000000
vn 0.000000 0.000000 -1.000000
vn 1.000000 0.000000 0.000000
vn 0.000000 0.000000 -1.000000
vn 0.000000 0.000000 -1.000000
vn 0.000000 0.000000 -1.000000
vn 0.000000 0.000000 -1.000000
vn 0.000000 0.000000 -1.000000
vn -1.000000 0.000000 0.000000
vn 0.000000 0.000000 -1.000000
vn 1.000000 0.000000 0.000000
vn 0.000000 -1.000000 0.000000
vn 0.000000 0.000000 -1.000000
vn 0.000000 -1.000000 0.000000
vn 0.000000 0.000000 -1.000000
vn 0.000000 -1.000000 0.000000
vn 0.000000 0.000000 -1.000000
vn 0.000000 -1.000000 0.000000
vn 0.000000 0.000000 -1.000000
vn 0.000000 -1.000000 0.000000
vn 0.000000 0.000000 -1.000000
vn -1.000000 0.000000 0.000000
vn 0.000000 -1.000000 0.000000
vn 0.000000 0.000000 -1.000000
f 1//1 38//63 2//4
f 1//2 2//5 7//15
f 2//5 8//17 7//15
f 1//3 7//16 43//69
f 1//1 37//61 38//63
f 1//3 43//69 37//62
f 2//4 39//64 3//6
f 2//5 3//7 8//17
f 3//7 9//18 8//17
f 2//4 38//63 39//64
f 3//6 40//65 4//8
f 3//7 4//9 9//18
f 4//9 10//19 9//18
f 3//6 39//64 40//65
f 4//8 41//66 5//10
f 4//9 5//11 10//19
f 5//11 11//20 10//19
f 4//8 40//65 41//66
f 6//12 42//67 44//70
f 5//10 42//68 6//13
f 5//11 6//14 11//20
f 6//12 44//70 12//21
f 6//14 12//22 11//20
f 5//10 41//66 42//68
f 7//15 8//17 13//23
f 8//17 14//25 13//23
f 7//16 13//24 45//71
f 7//16 45//71 43//69
f 8//17 9//18 14//25
f 9//18 15//26 14//25
f 9//18 10//19 15//26
f 10//19 16//27 15//26
f 10//19 11//20 16//27
f 11//20 17//28 16//27
f 12//21 44//70 46//72
f 11//20 12//22 17//28
f 12//21 46//72 18//29
f 12//22 18//30 17//28
f 13//23 14//25 19//31
f 14//25 20//33 19//31
f 13//24 19//32 47//73
f 13//24 47//73 45//71
f 14//25 15//26 20//33
f 15//26 21//34 20//33
f 15//26 16//27 21//34
f 16//27 22//35 21//34
f 16//27 17//28 22//35
f 17//28 23//36 22//35
f 18//29 46//72 48//74
f 17//28 18//30 23//36
f 18//29 48//74 24//37
f 18//30 24//38 23//36
f 19//31 20//33 25//39
f 20//33 26//41 25//39
f 19//32 25//40 49//75
f 19//32 49//75 47//73
f 20//33 21//34 26//41
f 21//34 27//42 26//41
f 21//34 22//35 27//42
f 22//35 28//43 27//42
f 22//35 23//36 28//43
f 23//36 29//44 28//43
f 24//37 48//74 50//76
f 23//36 24//38 29//44
f 24//37 50//76 30//45
f 24//38 30//46 29//44
f 25//39 26//41 31//47
f 31//48 32//50 52//79
f 26//41 32//51 31//47
f 25//40 31//49 51//77
f 31//48 52//79 51//78
f 25//40 51//77 49//75
f 26//41 27//42 32//51
f 32//50 33//52 53//80
f 27//42 33//53 32//51
f 32//50 53//80 52//79
f 27//42 28//43 33//53
f 33//52 34//54 54//81
f 28//43 34//55 33//53
f 33//52 54//81 53//80
f 28//43 29//44 34//55
f 34//54 35//56 55//82
f 29//44 35//57 34//55
f 34//54 55//82 54//81
f 30//45 50//76 56//83
f 29//44 30//46 35//57
f 35//56 36//58 56//84
f 30//45 56//83 36//59
f 30//46 36//60 35//57
f 35//56 56//84 55//82
f 37//61 58//87 38//63
f 37//62 43//69 63//93
f 37//61 57//85 58//87
f 37//62 63//93 57//86
f 38//63 59//88 39//64
f 38//63 58//87 59//88
f 39//64 60//89 40//65
f 39//64 59//88 60//89
f 40//65 61//90 41//66
f 40//65 60//89 61//90
f 42//67 62//91 64//94
f 41//66 62//92 42//68
f 42//67 64//94 44//70
f 41//66 61//90 62//92
f 43//69 45//71 65//95
f 43//69 65//95 63//93
f 44//70 64//94 66//96
f 44//70 66//96 46//72
f 45//71 47//73 67//97
f 45//71 67//97 65//95
f 46//72 66//96 68//98
f 46//72 68//98 48//74
f 47//73 49//75 69//99
f 47//73 69//99 67//97
f 48//74 68//98 70//100
f 48//74 70//100 50//76
f 51//78 52//79 72//103
f 49//75 51//77 71//101
f 51//78 72//103 71//102
f 49//75 71//101 69//99
f 52//79 53//80 73//104
f 52//79 73//104 72//103
f 53//80 54//81 74//105
f 53//80 74//105 73//104
f 54//81 55//82 75//106
f 54//81 75//106 74//105
f 50//76 70//100 76//107
f 55//82 56//84 76//108
f 50//76 76//107 56//83
f 55//82 76//108 75//106
f 57//85 78//111 58//87
f 57//86 63//93 83//117
f 57//85 77//109 78//111
f 57//86 83//117 77//110
f 58//87 79//112 59//88
f 58//87 78//111 79//112
f 59//88 80//113 60//89
f 59//88 79//112 80//113
f 60//89 81//114 61//90
f 60//89 80//113 81//114
f 62//91 82//115 84//118
f 61//90 82//116 62//92
f 62//91 84//118 64//94
f 61//90 81//114 82//116
f 63//93 65//95 85//119
f 63//93 85//119 83//117
f 64//94 84//118 86//120
f 64//94 86//120 66//96
f 65//95 67//97 87//121
f 65//95 87//121 85//119
f 66//96 86//120 88//122
f 66//96 88//122 68//98
f 67//97 69//99 89//123
f 67//97 89//123 87//121
f 68//98 88//122 90//124
f 68//98 90//124 70//100
f 71//102 72//103 92//127
f 69//99 71//101 91//125
f 71//102 92//127 91//126
f 69//99 91//125 89//123
f 72//103 73//104 93//128
f 72//103 93//128 92//127
f 73//104 74//105 94//129
f 73//104 94//129 93//128
f 74//105 75//106 95//130
f 74//105 95//130 94//129
f 70//100 90//124 96//131
f 75//106 76//108 96//132
f 70//100 96//131 76//107
f 75//106 96//132 95//130
f 77//109 98//135 78//111
f 77//110 83//117 103//141
f 77//109 97//133 98//135
f 77//110 103//141 97//134
f 78//111 99//136 79//112
f 78//111 98//135 99//136
f 79//112 100//137 80//113
f 79//112 99//136 100//137
f 80//113 101//138 81//114
f 80//113 100//137 101//138
f 82//115 102//139 104//142
f 81//114 102//140 82//116
f 82//115 104//142 84//118
f 81//114 101//138 102//140
f 83//117 85//119 105//143
f 83//117 105//143 103//141
f 84//118 104//142 106//144
f 84//118 106//144 86//120
f 85//119 87//121 107//145
f 85//119 107//145 105//143
f 86//120 106//144 108//146
f 86//120 108//146 88//122
f 87//121 89//123 109//147
f 87//121 109//147 107//145
f 88//122 108//146 110//148
f 88//122 110//148 90//124
f 91//126 92//127 112//151
f 89//123 91//125 111//149
f 91//126 112//151 111//150
f 89//123 111//149 109//147
f 92//127 93//128 113//152
f 92//127 113//152 112//151
f 93//128 94//129 114//153
f 93//128 114//153 113//152
f 94//129 95//130 115//154
f 94//129 115//154 114//153
f 90//124 110//148 116//155
f 95//130 96//132 116//156
f 90//124 116//155 96//131
f 95//130 116//156 115//154
f 97//133 118//160 98//135
f 97//134 103//141 123//171
f 118//161 123//172 124//173
f 97//133 117//157 118//160
f 97//134 123//171 117//158
f 117//159 123//172 118//161
f 98//135 119//162 99//136
f 119//163 124//173 125//174
f 98//135 118//160 119//162
f 118//161 124//173 119//163
f 99//136 120//164 100//137
f 120//165 125//174 126//175
f 99//136 119//162 120//164
f 119//163 125//174 120//165
f 100//137 121//166 101//138
f 121//167 126//175 127//176
f 100//137 120//164 121//166
f 120//165 126//175 121//167
f 102//139 122//168 128//177
f 101//138 122//169 102//140
f 102//139 128//177 104//142
f 122//170 127//176 128//178
f 101//138 121//166 122//169
f 121//167 127//176 122//170
f 103//141 105//143 129//179
f 124//173 129//180 130//181
f 103//141 129//179 123//171
f 123//172 129//180 124//173
f 125//174 130//181 131//182
f 124//173 130//181 125//174
f 126//175 131//182 132//183
f 125//174 131//182 126//175
f 127//176 132//183 133//184
f 126//175 132//183 127//176
f 104//142 128//177 134//185
f 104//142 134//185 106//144
f 128//178 133//184 134//186
f 127//176 133//184 128//178
f 105//143 107//145 135//187
f 130//181 135//188 136//189
f 105//143 135//187 129//179
f 129//180 135//188 130//181
f 131//182 136//189 137//190
f 130//181 136//189 131//182
f 132//183 137//190 138//191
f 131//182 137//190 132//183
f 133//184 138//191 139//192
f 132//183 138//191 133//184
f 106//144 134//185 140//193
f 106//144 140//193 108//146
f 134//186 139//192 140//194
f 133//184 139//192 134//186
f 107//145 109//147 141//195
f 136//189 141//196 142//197
f 107//145 141//195 135//187
f 135//188 141//196 136//189
f 137//190 142//197 143//198
f 136//189 142//197 137//190
f 138//191 143//198 144//199
f 137//190 143//198 138//191
f 139//192 144//199 145//200
f 138//191 144//199 139//192
f 108//146 140//193 146//201
f 108//146 146//201 110//148
f 140//194 145//200 146//202
f 139//192 145//200 140//194
f 111//150 112//151 148//206
f 109//147 111//149 147//203
f 111//150 148//206 147//204
f 142//197 147//205 148//207
f 109//147 147//203 141//195
f 141//196 147//205 142//197
f 112//151 113//152 149//208
f 112//151 149//208 148//206
f 143//198 148//207 149//209
f 142//197 148//207 143//198
f 113//152 114//153 150//210
f 113//152 150//210 149//208
f 144//199 149//209 150//211
f 143//198 149//209 144//199
f 114//153 115//154 151//212
f 114//153 151//212 150//210
f 145//200 150//211 151//213
f 144//199 150//211 145//200
f 110//148 146//201 152//214
f 115//154 116//156 152//215
f 110//148 152//214 116//155
f 115//154 152//215 151//212
f 146//202 151//213 152//216
f 145//200 151//213 146//202
